<svg width="24" height="24" viewBox="0 0 24 24" fill="none" xmlns="http://www.w3.org/2000/svg">
<path d="M21.2865 4.30189C21.6158 4.26072 21.8834 4.01372 21.9657 3.68439C22.048 3.37564 21.9451 3.02573 21.6981 2.8199C19.5575 1.00858 16.8199 0 14 0C7.3928 0 2 5.37221 2 12C2 18.6278 7.37221 24 14 24C16.964 24 19.825 22.8885 22.048 20.8919C22.295 20.6655 22.3774 20.3156 22.295 20.0069C22.2127 19.6981 21.9245 19.4717 21.5952 19.4305C17.7667 18.9777 14.8645 15.7256 14.8645 11.8559C14.8439 8.04803 17.5609 4.87822 21.2865 4.30189ZM13.1561 11.8353C13.1561 15.9108 15.7907 19.4305 19.5369 20.6861C17.8902 21.7358 15.976 22.3122 14 22.3122C8.31904 22.3122 3.7084 17.681 3.7084 12.0206C3.7084 6.36021 8.33962 1.72899 14 1.72899C15.8319 1.72899 17.6226 2.22298 19.187 3.12864C15.6055 4.44597 13.1561 7.86278 13.1561 11.8353Z" fill="#FAFAFA"/>
</svg>
