<svg width="36" height="36" viewBox="0 0 36 36" fill="none" xmlns="http://www.w3.org/2000/svg">
<path d="M20.3483 32C12.6206 32 6.33337 25.7115 6.33337 17.9851C6.33337 10.4852 12.2075 4.34303 19.7049 4.00179C19.9647 3.98229 20.1692 4.12366 20.2789 4.33693C20.3861 4.55142 20.3568 4.811 20.2045 4.99746C18.3317 7.27763 17.3031 10.1586 17.3031 13.1103C17.3031 20.1661 23.0419 25.9065 30.0994 25.9065C30.2188 25.9065 30.3354 25.8968 30.454 25.8895L30.6856 25.8745C30.9111 25.8651 31.1495 25.9964 31.2584 26.2099C31.3681 26.4257 31.3378 26.6841 31.184 26.869C28.5083 30.1296 24.5592 32 20.3483 32Z" fill="#487EB0"/>
</svg>
