<svg width="36" height="36" viewBox="0 0 36 36" fill="none" xmlns="http://www.w3.org/2000/svg">
<path d="M18 32C25.732 32 32 25.732 32 18C32 10.268 25.732 4 18 4C10.268 4 4 10.268 4 18C4 25.732 10.268 32 18 32Z" fill="#F0F0F0"/>
<path d="M17.3914 18H32C32 16.7364 31.8316 15.5123 31.5177 14.3478H17.3914V18Z" fill="#D80027"/>
<path d="M17.3914 10.6957H29.9452C29.0882 9.29718 27.9924 8.06108 26.7148 7.04346H17.3914V10.6957Z" fill="#D80027"/>
<path d="M17.9999 32C21.2948 32 24.3232 30.8612 26.7147 28.9565H9.28516C11.6766 30.8612 14.7051 32 17.9999 32Z" fill="#D80027"/>
<path d="M6.05472 25.3044H29.9451C30.6331 24.1817 31.1667 22.9545 31.5176 21.6522H4.48218C4.83311 22.9545 5.36669 24.1817 6.05472 25.3044Z" fill="#D80027"/>
<path d="M10.4851 6.1863H11.7609L10.5741 7.04845L11.0275 8.44347L9.84079 7.58132L8.65412 8.44347L9.04569 7.23832C8.00083 8.10867 7.08503 9.12838 6.33034 10.2646H6.73913L5.98373 10.8134C5.86605 11.0097 5.75317 11.2091 5.645 11.4115L6.00572 12.5217L5.33273 12.0328C5.16545 12.3872 5.01243 12.7496 4.87489 13.1196L5.2723 14.3428H6.73913L5.55241 15.205L6.00572 16.6L4.81905 15.7379L4.10823 16.2543C4.03708 16.8262 4 17.4088 4 18H18C18 10.2681 18 9.35653 18 4C15.2343 4 12.6562 4.80227 10.4851 6.1863ZM11.0275 16.6L9.84079 15.7379L8.65412 16.6L9.10743 15.205L7.92071 14.3428H9.38754L9.84079 12.9478L10.294 14.3428H11.7609L10.5741 15.205L11.0275 16.6ZM10.5741 11.1267L11.0275 12.5217L9.84079 11.6596L8.65412 12.5217L9.10743 11.1267L7.92071 10.2646H9.38754L9.84079 8.86954L10.294 10.2646H11.7609L10.5741 11.1267ZM16.0492 16.6L14.8625 15.7379L13.6759 16.6L14.1292 15.205L12.9424 14.3428H14.4093L14.8625 12.9478L15.3158 14.3428H16.7826L15.5959 15.205L16.0492 16.6ZM15.5959 11.1267L16.0492 12.5217L14.8625 11.6596L13.6759 12.5217L14.1292 11.1267L12.9424 10.2646H14.4093L14.8625 8.86954L15.3158 10.2646H16.7826L15.5959 11.1267ZM15.5959 7.04845L16.0492 8.44347L14.8625 7.58132L13.6759 8.44347L14.1292 7.04845L12.9424 6.1863H14.4093L14.8625 4.79127L15.3158 6.1863H16.7826L15.5959 7.04845Z" fill="#0052B4"/>
</svg>
