<svg width="36" height="36" viewBox="0 0 36 36" fill="none" xmlns="http://www.w3.org/2000/svg">
<path d="M18 32C25.732 32 32 25.732 32 18C32 10.268 25.732 4 18 4C10.268 4 4 10.268 4 18C4 25.732 10.268 32 18 32Z" fill="#F0F0F0"/>
<path d="M31.1292 22.8696C31.692 21.3529 32 19.7125 32 18C32 16.2875 31.692 14.6471 31.1292 13.1305H4.87079C4.30805 14.6471 4 16.2875 4 18C4 19.7125 4.30805 21.3529 4.87079 22.8696L18 24.087L31.1292 22.8696Z" fill="#0052B4"/>
<path d="M18.0001 32C24.0196 32 29.1512 28.2007 31.1293 22.8695H4.87085C6.84895 28.2007 11.9806 32 18.0001 32Z" fill="#D80027"/>
</svg>
