<svg width="24" height="24" viewBox="0 0 24 24" fill="none" xmlns="http://www.w3.org/2000/svg">
    <path d="M2.68965 9.68605C3.47536 5.67696 6.6977 2.59534 10.7379 1.98932V1.98932C17.2612 1.01082 22.8254 6.71218 21.6883 13.2098L21.3037 15.4073C20.7982 18.2959 18.9527 20.7737 16.3297 22.0851V22.0851C15.1245 22.6878 13.783 23.0203 12.436 23.0584V23.0584C6.12069 23.2369 1.15547 17.5142 2.37054 11.3143L2.68965 9.68605Z" fill="#363636"/>
    <rect x="8.30005" y="22" width="7.5" height="1.4" fill="#363636"/>
    <path fill-rule="evenodd" clip-rule="evenodd" d="M12 0C5.37 0 0 5.37 0 12C0 17.31 3.435 21.795 8.205 23.385C8.805 23.49 9.03 23.13 9.03 22.815C9.03 22.53 9.015 21.585 9.015 20.58C6 21.135 5.22 19.845 4.98 19.17C4.845 18.825 4.26 17.76 3.75 17.475C3.33 17.25 2.73 16.695 3.735 16.68C4.68 16.665 5.355 17.55 5.58 17.91C6.66 19.725 8.385 19.215 9.075 18.9C9.18 18.12 9.495 17.595 9.84 17.295C7.17 16.995 4.38 15.96 4.38 11.37C4.38 10.065 4.845 8.985 5.61 8.145C5.49 7.845 5.07 6.615 5.73 4.965C5.73 4.965 6.735 4.65 9.03 6.195C9.99 5.925 11.01 5.79 12.03 5.79C13.05 5.79 14.07 5.925 15.03 6.195C17.325 4.635 18.33 4.965 18.33 4.965C18.99 6.615 18.57 7.845 18.45 8.145C19.215 8.985 19.68 10.05 19.68 11.37C19.68 15.975 16.875 16.995 14.205 17.295C14.64 17.67 15.015 18.39 15.015 19.515C15.015 21.12 15 22.41 15 22.815C15 23.13 15.225 23.505 15.825 23.385C18.2072 22.5807 20.2772 21.0497 21.7437 19.0074C23.2101 16.965 23.9993 14.5143 24 12C24 5.37 18.63 0 12 0Z" fill="white"/>
</svg>
