<svg width="40" height="40" viewBox="0 0 40 40" fill="none" xmlns="http://www.w3.org/2000/svg">
<path d="M35.6888 16.8664H34.4V16.8H20V23.2H29.0424C27.7232 26.9256 24.1784 29.6 20 29.6C14.6984 29.6 10.4 25.3016 10.4 20C10.4 14.6984 14.6984 10.4 20 10.4C22.4472 10.4 24.6736 11.3232 26.3688 12.8312L30.8944 8.3056C28.0368 5.6424 24.2144 4 20 4C11.164 4 4 11.164 4 20C4 28.836 11.164 36 20 36C28.836 36 36 28.836 36 20C36 18.9272 35.8896 17.88 35.6888 16.8664Z" fill="#FFC107"/>
<path d="M5.84485 12.5528L11.1016 16.408C12.524 12.8864 15.9688 10.4 20 10.4C22.4472 10.4 24.6736 11.3232 26.3688 12.8312L30.8944 8.3056C28.0368 5.6424 24.2144 4 20 4C13.8544 4 8.52485 7.4696 5.84485 12.5528Z" fill="#FF3D00"/>
<path d="M20 36C24.1328 36 27.888 34.4184 30.7272 31.8464L25.7752 27.656C24.1148 28.9187 22.0859 29.6017 20 29.6C15.8384 29.6 12.3048 26.9464 10.9736 23.2432L5.75598 27.2632C8.40398 32.4448 13.7816 36 20 36Z" fill="#4CAF50"/>
<path d="M35.6888 16.8664H34.4V16.8H20V23.2H29.0424C28.4114 24.9731 27.2747 26.5225 25.7728 27.6568L25.7752 27.6552L30.7272 31.8456C30.3768 32.164 36 28 36 20C36 18.9272 35.8896 17.88 35.6888 16.8664Z" fill="#1976D2"/>
</svg>
