<svg width="33" height="24" viewBox="0 0 33 24" fill="none" xmlns="http://www.w3.org/2000/svg">
<path d="M6.00002 16.6666C5.8855 16.6663 5.77299 16.6364 5.67336 16.58C5.51973 16.4931 5.4068 16.3489 5.35931 16.179C5.31182 16.009 5.33366 15.8272 5.42002 15.6733L8.75335 9.67331C8.84176 9.51948 8.98765 9.40708 9.15893 9.36082C9.33022 9.31456 9.51286 9.33824 9.66669 9.42664C9.82051 9.51505 9.93292 9.66094 9.97918 9.83222C10.0254 10.0035 10.0018 10.1861 9.91335 10.34L6.58002 16.34C6.52045 16.4405 6.43551 16.5235 6.33371 16.5809C6.23192 16.6382 6.11685 16.6678 6.00002 16.6666Z" fill="#363636"/>
<path d="M12.6667 16.6667C12.5486 16.6665 12.4326 16.6349 12.3307 16.5751C12.2288 16.5154 12.1446 16.4296 12.0867 16.3267L8.75339 10.3267C8.70962 10.2505 8.68127 10.1665 8.66998 10.0793C8.65869 9.99222 8.66466 9.90373 8.68757 9.81892C8.71047 9.73411 8.74986 9.65464 8.80348 9.58505C8.85709 9.51546 8.92389 9.45711 9.00006 9.41334C9.15388 9.32493 9.33653 9.30125 9.50781 9.34751C9.59262 9.37042 9.67209 9.4098 9.74168 9.46342C9.81127 9.51704 9.86962 9.58384 9.91339 9.66L13.2467 15.66C13.2919 15.7364 13.3213 15.821 13.3333 15.9089C13.3453 15.9967 13.3397 16.0862 13.3167 16.1718C13.2937 16.2575 13.2539 16.3377 13.1995 16.4078C13.1452 16.4779 13.0773 16.5365 13.0001 16.58C12.8985 16.6376 12.7835 16.6675 12.6667 16.6667V16.6667Z" fill="#363636"/>
<path d="M11.6 14.74H7.06669C6.88988 14.74 6.72031 14.6697 6.59529 14.5447C6.47026 14.4197 6.40002 14.2501 6.40002 14.0733C6.40002 13.8965 6.47026 13.7269 6.59529 13.6019C6.72031 13.4769 6.88988 13.4066 7.06669 13.4066H11.6C11.7768 13.4066 11.9464 13.4769 12.0714 13.6019C12.1964 13.7269 12.2667 13.8965 12.2667 14.0733C12.2667 14.2501 12.1964 14.4197 12.0714 14.5447C11.9464 14.6697 11.7768 14.74 11.6 14.74V14.74Z" fill="#363636"/>
<path d="M4.66666 24C4.54988 24.0008 4.43493 23.9709 4.33333 23.9133C4.23159 23.8546 4.14718 23.77 4.08865 23.6682C4.03011 23.5663 3.99953 23.4508 4 23.3333V20H3.58666C2.63658 20 1.7253 19.623 1.05286 18.9518C0.380425 18.2807 0.00176596 17.3701 0 16.42V9.58666C0 8.63542 0.37788 7.72314 1.05051 7.05051C1.72314 6.37788 2.63542 6 3.58666 6H15.7533C16.7034 6.00177 17.614 6.38042 18.2852 7.05286C18.9564 7.7253 19.3333 8.63658 19.3333 9.58666V16.42C19.3316 17.3689 18.9538 18.2785 18.2828 18.9495C17.6118 19.6205 16.7023 19.9982 15.7533 20H11.7533L5 23.9133C4.89839 23.9709 4.78345 24.0008 4.66666 24V24ZM3.58666 7.33333C2.98904 7.33333 2.4159 7.57074 1.99332 7.99332C1.57074 8.4159 1.33333 8.98904 1.33333 9.58666V16.42C1.33333 16.7156 1.39166 17.0083 1.50499 17.2813C1.61831 17.5543 1.78439 17.8023 1.99372 18.011C2.20305 18.2197 2.45151 18.385 2.72486 18.4976C2.9982 18.6101 3.29107 18.6675 3.58666 18.6667H4.66666C4.84347 18.6667 5.01304 18.7369 5.13807 18.8619C5.26309 18.9869 5.33333 19.1565 5.33333 19.3333V22.18L11.2667 18.7533C11.3689 18.6974 11.4834 18.6676 11.6 18.6667H15.7533C16.3492 18.6667 16.9206 18.43 17.342 18.0086C17.7633 17.5873 18 17.0158 18 16.42V9.58666C18.0009 9.29107 17.9434 8.9982 17.8309 8.72486C17.7184 8.45151 17.553 8.20305 17.3443 7.99372C17.1356 7.78439 16.8876 7.61831 16.6146 7.50498C16.3416 7.39166 16.0489 7.33333 15.7533 7.33333H3.58666Z" fill="#363636"/>
<path d="M26 5.33333H20.6667C20.4899 5.33333 20.3203 5.2631 20.1953 5.13807C20.0702 5.01305 20 4.84348 20 4.66667C20 4.48986 20.0702 4.32029 20.1953 4.19526C20.3203 4.07024 20.4899 4 20.6667 4H26C26.1768 4 26.3464 4.07024 26.4714 4.19526C26.5964 4.32029 26.6667 4.48986 26.6667 4.66667C26.6667 4.84348 26.5964 5.01305 26.4714 5.13807C26.3464 5.2631 26.1768 5.33333 26 5.33333Z" fill="#363636"/>
<path d="M23.3333 5.33332C23.1565 5.33332 22.9869 5.26308 22.8619 5.13806C22.7369 5.01304 22.6666 4.84347 22.6666 4.66666V3.33332C22.6666 3.15651 22.7369 2.98694 22.8619 2.86192C22.9869 2.73689 23.1565 2.66666 23.3333 2.66666C23.5101 2.66666 23.6797 2.73689 23.8047 2.86192C23.9297 2.98694 24 3.15651 24 3.33332V4.66666C24 4.84347 23.9297 5.01304 23.8047 5.13806C23.6797 5.26308 23.5101 5.33332 23.3333 5.33332Z" fill="#363636"/>
<path d="M22.0001 10C21.877 9.99964 21.7563 9.96519 21.6516 9.90047C21.5469 9.83575 21.4621 9.74329 21.4067 9.63335C21.3277 9.4759 21.3141 9.29356 21.3691 9.12616C21.4241 8.95877 21.543 8.81994 21.7001 8.74002C22.4667 8.35335 23.7334 5.97335 24.3667 4.41335C24.3938 4.32444 24.4392 4.24218 24.4999 4.17184C24.5607 4.1015 24.6355 4.04464 24.7195 4.00491C24.8035 3.96518 24.8949 3.94345 24.9878 3.94113C25.0807 3.9388 25.1731 3.95593 25.259 3.99141C25.3449 4.02689 25.4224 4.07994 25.4866 4.14715C25.5508 4.21437 25.6002 4.29426 25.6317 4.3817C25.6632 4.46914 25.6761 4.56221 25.6695 4.65491C25.6629 4.74762 25.637 4.83792 25.5934 4.92002C25.3001 5.62668 23.7601 9.18668 22.2601 9.92668C22.1798 9.96994 22.0911 9.99498 22.0001 10Z" fill="#363636"/>
<path d="M26 10C25.869 10.0015 25.7407 9.96186 25.6334 9.88666L21.6334 7.22C21.504 7.1158 21.4182 6.96706 21.3928 6.80291C21.3673 6.63876 21.4041 6.47103 21.4958 6.33256C21.5876 6.1941 21.7277 6.09487 21.8888 6.05432C22.0499 6.01377 22.2203 6.03481 22.3667 6.11333L26.3667 8.78C26.4849 8.85944 26.5746 8.97465 26.6226 9.10876C26.6706 9.24287 26.6743 9.38883 26.6333 9.52524C26.5923 9.66164 26.5087 9.78134 26.3948 9.86677C26.2808 9.95221 26.1424 9.9989 26 10Z" fill="#363636"/>
<path d="M27.3334 18C27.2354 18.0001 27.1387 17.9787 27.0499 17.9372C26.9612 17.8958 26.8827 17.8352 26.82 17.76L23.6667 14H18.6667C18.4899 14 18.3203 13.9298 18.1953 13.8047C18.0703 13.6797 18 13.5101 18 13.3333C18 13.1565 18.0703 12.9869 18.1953 12.8619C18.3203 12.7369 18.4899 12.6667 18.6667 12.6667H24C24.098 12.6665 24.1947 12.6879 24.2835 12.7294C24.3722 12.7709 24.4507 12.8314 24.5134 12.9067L26.6667 15.4933V13.3333C26.6667 13.1565 26.7369 12.9869 26.862 12.8619C26.987 12.7369 27.1566 12.6667 27.3334 12.6667H29.08C29.6771 12.6649 30.2492 12.4269 30.6714 12.0047C31.0936 11.5825 31.3316 11.0104 31.3334 10.4133V3.58666C31.3316 2.98958 31.0936 2.41746 30.6714 1.99526C30.2492 1.57306 29.6771 1.33509 29.08 1.33333H16.92C16.323 1.33509 15.7508 1.57306 15.3286 1.99526C14.9064 2.41746 14.6685 2.98958 14.6667 3.58666V6.66666C14.6667 6.84347 14.5965 7.01304 14.4714 7.13807C14.3464 7.26309 14.1769 7.33333 14 7.33333C13.8232 7.33333 13.6537 7.26309 13.5286 7.13807C13.4036 7.01304 13.3334 6.84347 13.3334 6.66666V3.58666C13.3334 2.63542 13.7113 1.72314 14.3839 1.05051C15.0565 0.37788 15.9688 0 16.92 0H29.08C30.0313 0 30.9436 0.37788 31.6162 1.05051C32.2888 1.72314 32.6667 2.63542 32.6667 3.58666V10.4133C32.6667 11.3646 32.2888 12.2769 31.6162 12.9495C30.9436 13.6221 30.0313 14 29.08 14H28V17.3333C28 17.4703 27.9577 17.604 27.879 17.7161C27.8002 17.8283 27.6889 17.9134 27.56 17.96C27.4874 17.9864 27.4107 17.9999 27.3334 18Z" fill="#363636"/>
</svg>
