<svg width="24" height="24" viewBox="0 0 24 24" fill="none" xmlns="http://www.w3.org/2000/svg">
<path d="M11.9999 17.1429C10.9828 17.1429 9.98843 16.8412 9.1427 16.2761C8.29696 15.711 7.63779 14.9078 7.24853 13.9681C6.85928 13.0284 6.75744 11.9943 6.95588 10.9967C7.15431 9.99907 7.64412 9.0827 8.36337 8.36346C9.08261 7.64422 9.99898 7.15441 10.9966 6.95597C11.9942 6.75753 13.0283 6.85938 13.968 7.24863C14.9077 7.63788 15.7109 8.29705 16.276 9.14279C16.8411 9.98853 17.1428 10.9828 17.1428 12C17.1428 13.364 16.6009 14.6721 15.6365 15.6366C14.672 16.601 13.3639 17.1429 11.9999 17.1429ZM11.9999 8.57143C11.3218 8.57143 10.6589 8.77252 10.0951 9.14925C9.53128 9.52599 9.09183 10.0615 8.83233 10.6879C8.57283 11.3144 8.50493 12.0038 8.63722 12.6689C8.76951 13.334 9.09605 13.9449 9.57555 14.4244C10.055 14.9039 10.666 15.2304 11.331 15.3627C11.9961 15.495 12.6855 15.4271 13.312 15.1676C13.9385 14.9081 14.4739 14.4686 14.8507 13.9048C15.2274 13.341 15.4285 12.6781 15.4285 12C15.4285 11.0907 15.0673 10.2186 14.4243 9.57564C13.7813 8.93266 12.9092 8.57143 11.9999 8.57143V8.57143Z" fill="#363636"/>
<path d="M12 5.14286C11.7726 5.14286 11.5546 5.05255 11.3939 4.89181C11.2331 4.73106 11.1428 4.51304 11.1428 4.28571V0.857143C11.1428 0.629814 11.2331 0.411797 11.3939 0.251051C11.5546 0.0903058 11.7726 0 12 0C12.2273 0 12.4453 0.0903058 12.6061 0.251051C12.7668 0.411797 12.8571 0.629814 12.8571 0.857143V4.28571C12.8571 4.51304 12.7668 4.73106 12.6061 4.89181C12.4453 5.05255 12.2273 5.14286 12 5.14286Z" fill="#363636"/>
<path d="M17.4514 7.4057C17.2253 7.40248 17.0097 7.31005 16.8514 7.14856C16.6918 6.98796 16.6022 6.77071 16.6022 6.54427C16.6022 6.31782 16.6918 6.10058 16.8514 5.93998L19.2771 3.51427C19.354 3.42454 19.4485 3.35167 19.5549 3.30022C19.6612 3.24877 19.777 3.21986 19.8951 3.2153C20.0131 3.21074 20.1309 3.23063 20.2408 3.27372C20.3508 3.31682 20.4507 3.38218 20.5343 3.46571C20.6178 3.54924 20.6832 3.64914 20.7263 3.75914C20.7693 3.86913 20.7892 3.98684 20.7847 4.10489C20.7801 4.22293 20.7512 4.33876 20.6998 4.4451C20.6483 4.55144 20.5754 4.646 20.4857 4.72284L18.06 7.14856C17.9806 7.22955 17.8859 7.29398 17.7815 7.33812C17.677 7.38226 17.5648 7.40523 17.4514 7.4057V7.4057Z" fill="#363636"/>
<path d="M23.1428 12.8571H19.7142C19.4869 12.8571 19.2689 12.7668 19.1081 12.6061C18.9474 12.4453 18.8571 12.2273 18.8571 12C18.8571 11.7727 18.9474 11.5546 19.1081 11.3939C19.2689 11.2332 19.4869 11.1429 19.7142 11.1429H23.1428C23.3701 11.1429 23.5881 11.2332 23.7489 11.3939C23.9096 11.5546 23.9999 11.7727 23.9999 12C23.9999 12.2273 23.9096 12.4453 23.7489 12.6061C23.5881 12.7668 23.3701 12.8571 23.1428 12.8571Z" fill="#363636"/>
<path d="M19.8771 20.7343C19.6522 20.7333 19.4367 20.6441 19.2771 20.4857L16.8514 18.06C16.7109 17.896 16.6376 17.6851 16.6459 17.4694C16.6542 17.2537 16.7437 17.049 16.8963 16.8964C17.049 16.7437 17.2536 16.6543 17.4693 16.646C17.685 16.6376 17.896 16.711 18.0599 16.8514L20.4857 19.2771C20.6453 19.4377 20.7349 19.655 20.7349 19.8814C20.7349 20.1079 20.6453 20.3251 20.4857 20.4857C20.4056 20.5652 20.3106 20.628 20.2061 20.6707C20.1017 20.7133 19.9899 20.7349 19.8771 20.7343Z" fill="#363636"/>
<path d="M12 24C11.7726 24 11.5546 23.9097 11.3939 23.749C11.2331 23.5882 11.1428 23.3702 11.1428 23.1429V19.7143C11.1428 19.487 11.2331 19.2689 11.3939 19.1082C11.5546 18.9475 11.7726 18.8571 12 18.8571C12.2273 18.8571 12.4453 18.9475 12.6061 19.1082C12.7668 19.2689 12.8571 19.487 12.8571 19.7143V23.1429C12.8571 23.3702 12.7668 23.5882 12.6061 23.749C12.4453 23.9097 12.2273 24 12 24Z" fill="#363636"/>
<path d="M4.12284 20.7343C4.01003 20.7349 3.89821 20.7133 3.79377 20.6707C3.68934 20.628 3.59436 20.5652 3.51427 20.4857C3.35462 20.3251 3.26501 20.1079 3.26501 19.8814C3.26501 19.655 3.35462 19.4377 3.51427 19.2771L5.93998 16.8514C6.10395 16.711 6.31487 16.6376 6.5306 16.646C6.74632 16.6543 6.95095 16.7437 7.10361 16.8964C7.25626 17.049 7.34569 17.2537 7.35402 17.4694C7.36235 17.6851 7.28897 17.896 7.14855 18.06L4.72284 20.4857C4.56318 20.6441 4.3477 20.7333 4.12284 20.7343Z" fill="#363636"/>
<path d="M4.28571 12.8571H0.857143C0.629814 12.8571 0.411797 12.7668 0.251051 12.6061C0.0903058 12.4453 0 12.2273 0 12C0 11.7727 0.0903058 11.5546 0.251051 11.3939C0.411797 11.2332 0.629814 11.1429 0.857143 11.1429H4.28571C4.51304 11.1429 4.73106 11.2332 4.89181 11.3939C5.05255 11.5546 5.14286 11.7727 5.14286 12C5.14286 12.2273 5.05255 12.4453 4.89181 12.6061C4.73106 12.7668 4.51304 12.8571 4.28571 12.8571Z" fill="#363636"/>
<path d="M6.5485 7.40573C6.43509 7.40526 6.32291 7.38229 6.21844 7.33815C6.11398 7.29401 6.01931 7.22958 5.93993 7.14859L3.51421 4.72287C3.37379 4.5589 3.30041 4.34798 3.30874 4.13226C3.31708 3.91654 3.4065 3.7119 3.55916 3.55925C3.71181 3.4066 3.91644 3.31717 4.13217 3.30884C4.34789 3.3005 4.55881 3.37388 4.72278 3.5143L7.1485 5.94002C7.30814 6.10061 7.39775 6.31786 7.39775 6.5443C7.39775 6.77075 7.30814 6.98799 7.1485 7.14859C6.99024 7.31009 6.77459 7.40251 6.5485 7.40573Z" fill="#363636"/>
</svg>
