<svg width="36" height="36" viewBox="0 0 36 36" fill="none" xmlns="http://www.w3.org/2000/svg">
<path d="M18 23.9066C14.6987 23.9066 12.0223 21.2303 12.0223 17.9289C12.0223 14.6275 14.6987 11.9512 18 11.9512C21.3014 11.9512 23.9778 14.6275 23.9778 17.9289C23.9778 21.2303 21.3014 23.9066 18 23.9066ZM31.9922 20.6067C31.9573 20.8259 31.8081 21.0098 31.6008 21.0891L27.1598 22.7892L28.5956 27.1235C28.6654 27.3341 28.6175 27.5661 28.4699 27.7319C28.3223 27.8977 28.0974 27.972 27.8801 27.9273L23.2232 26.9653L22.0961 31.3899C22.0414 31.6051 21.876 31.7746 21.6623 31.8347C21.6068 31.8503 21.5502 31.8579 21.4941 31.8579C21.3342 31.8579 21.1779 31.7961 21.0602 31.6813L17.6563 28.3608L14.3221 31.4801C14.16 31.6317 13.9293 31.6853 13.7169 31.6208C13.5045 31.5563 13.3427 31.3834 13.2925 31.1672L12.2152 26.5354L7.72532 27.3654C7.50709 27.4057 7.28385 27.3266 7.13977 27.1578C6.99569 26.9889 6.95265 26.756 7.02682 26.5468L8.61623 22.0649L4.38712 20.3438C4.18151 20.2602 4.03616 20.0732 4.00585 19.8533C3.97549 19.6334 4.06477 19.4141 4.24003 19.2779L7.99476 16.3596L5.36031 12.6302C5.23223 12.4489 5.21062 12.2131 5.3036 12.0116C5.39658 11.81 5.59003 11.6734 5.81106 11.6531L10.5466 11.2191L10.338 6.65784C10.3279 6.43611 10.4368 6.22584 10.6238 6.1062C10.8107 5.98655 11.0473 5.97574 11.2444 6.07779L15.4669 8.26491L17.7498 4.31066C17.8608 4.11846 18.0659 4 18.2879 4C18.5099 4 18.715 4.11841 18.8259 4.31066L21.2789 8.55938L25.5037 6.48206C25.7029 6.38419 25.9392 6.39987 26.1236 6.52348C26.3081 6.647 26.4125 6.8595 26.3978 7.08098L26.0813 11.8258L30.6184 12.3376C30.839 12.3625 31.0295 12.5031 31.1182 12.7066C31.207 12.91 31.1804 13.1453 31.0486 13.3239L28.2245 17.1498L31.7701 20.0265C31.9425 20.1663 32.0272 20.3874 31.9922 20.6067ZM18 25.3648C19.9862 25.3648 21.8535 24.5913 23.258 23.1869C24.6625 21.7824 25.4359 19.9151 25.4359 17.9289C25.4359 15.9428 24.6625 14.0754 23.258 12.671C21.8536 11.2666 19.9862 10.4931 18 10.4931C16.0138 10.4931 14.1465 11.2666 12.742 12.671C11.3376 14.0754 10.5641 15.9428 10.5641 17.9289C10.5641 19.9151 11.3376 21.7824 12.742 23.1869C14.1465 24.5913 16.0138 25.3648 18 25.3648Z" fill="#FBC531"/>
</svg>
