<svg width="512" height="512" viewBox="0 0 512 512" fill="none" xmlns="http://www.w3.org/2000/svg">
    <path d="M332.8 140.8H179.2C162.226 140.8 145.948 147.543 133.945 159.545C121.943 171.547 115.2 187.826 115.2 204.8V281.6C115.2 298.574 121.943 314.852 133.945 326.855C145.948 338.857 162.226 345.6 179.2 345.6V371.2C179.199 376.11 180.611 380.917 183.266 385.048C185.921 389.178 189.709 392.458 194.176 394.496C197.521 395.986 201.138 396.771 204.8 396.8C210.979 396.76 216.934 394.487 221.568 390.4L272.768 345.6H332.8C349.774 345.6 366.053 338.857 378.055 326.855C390.057 314.852 396.8 298.574 396.8 281.6V204.8C396.8 187.826 390.057 171.547 378.055 159.545C366.053 147.543 349.774 140.8 332.8 140.8Z" fill="#4D38A2"/>
</svg>
