<svg width="64" height="64" viewBox="0 0 64 64" fill="none" xmlns="http://www.w3.org/2000/svg">
<path d="M0 6.4C0 2.86538 2.86538 0 6.4 0H57.6C61.1346 0 64 2.86538 64 6.4V57.6C64 61.1346 61.1346 64 57.6 64H6.4C2.86538 64 0 61.1346 0 57.6V6.4Z" fill="white"/>
<path d="M40.5 19H22.5C20.5109 19 18.6033 19.7902 17.1967 21.1967C15.7902 22.6032 15 24.5109 15 26.5V35.5C15 37.4891 15.7902 39.3967 17.1967 40.8033C18.6033 42.2098 20.5109 43 22.5 43V46C22.4999 46.5754 22.6654 47.1387 22.9765 47.6228C23.2876 48.1068 23.7315 48.4912 24.255 48.73C24.647 48.9046 25.0709 48.9966 25.5 49C26.2241 48.9953 26.922 48.7289 27.465 48.25L33.465 43H40.5C42.4891 43 44.3968 42.2098 45.8033 40.8033C47.2098 39.3967 48 37.4891 48 35.5V26.5C48 24.5109 47.2098 22.6032 45.8033 21.1967C44.3968 19.7902 42.4891 19 40.5 19Z" fill="#6749DC"/>
</svg>
