<svg width="24" height="24" viewBox="0 0 24 24" fill="none" xmlns="http://www.w3.org/2000/svg">
<path d="M23.0096 10.4023L2.58151 0.188287C2.27183 0.0334684 1.9238 -0.0278877 1.57985 0.011702C1.23591 0.0512917 0.910912 0.190116 0.644511 0.411243C0.378109 0.63237 0.181814 0.926242 0.0795661 1.25702C-0.0226817 1.58779 -0.0264627 1.94117 0.0686841 2.27406L2.67694 11.4034H11.9966C12.1543 11.4034 12.3055 11.4661 12.417 11.5776C12.5285 11.6891 12.5912 11.8403 12.5912 11.998C12.5912 12.1557 12.5285 12.307 12.417 12.4185C12.3055 12.53 12.1543 12.5926 11.9966 12.5926H2.67694L0.0686841 21.722C-0.00643633 21.9872 -0.0192965 22.2662 0.0311062 22.5372C0.0815088 22.8082 0.193812 23.0639 0.359264 23.2844C0.524716 23.5048 0.738847 23.6841 0.984966 23.8083C1.23109 23.9324 1.50255 23.998 1.77819 24C2.05737 23.9993 2.33255 23.9335 2.58181 23.8078L23.0096 13.5937C23.3059 13.4455 23.5551 13.2177 23.7293 12.9359C23.9034 12.6541 23.9957 12.3293 23.9957 11.998C23.9957 11.6667 23.9034 11.342 23.7293 11.0601C23.5551 10.7783 23.3059 10.5505 23.0096 10.4023Z" fill="#6749DC"/>
</svg>
